<?xml version="1.0" encoding="iso-8859-1"?>
<!-- Generator: Adobe Illustrator 19.0.0, SVG Export Plug-In . SVG Version: 6.00 Build 0)  -->
<svg version="1.1" id="Layer_1" xmlns="http://www.w3.org/2000/svg" xmlns:xlink="http://www.w3.org/1999/xlink" x="0px" y="0px"
	 viewBox="0 0 512.67 512.67" style="enable-background:new 0 0 512.67 512.67;" xml:space="preserve">
<g transform="translate(1 1)">
	<polygon style="fill:#FFDD09;" points="331.616,349.201 75.616,349.201 75.616,229.735 254.816,229.735 297.483,280.935 
		434.016,195.601 	"/>
	<polygon style="fill:#FD9808;" points="390.496,222.908 306.016,349.201 331.616,349.201 434.016,195.601 	"/>
	<polygon style="fill:#FFDD09;" points="75.616,246.801 7.35,204.135 24.416,161.468 75.616,195.601 	"/>
	<polygon style="fill:#FFFFFF;" points="25.27,212.668 41.483,172.561 25.27,161.468 8.203,204.135 	"/>
	<path style="fill:#54C9FD;" d="M486.07,281.788l-9.387-17.92l-7.68,14.507c-4.267,8.533-8.533,17.067-13.653,23.893
		c-2.56,3.413-4.267,6.827-4.267,11.093c-0.853,12.8,7.68,23.893,20.48,26.453c16.213,3.413,30.72-9.387,30.72-24.747
		c0-4.267-0.853-7.68-3.413-11.093C494.603,297.148,489.483,289.468,486.07,281.788"/>
	<path d="M331.616,357.735h-256c-5.12,0-8.533-3.413-8.533-8.533V229.735c0-5.12,3.413-8.533,8.533-8.533h179.2
		c2.56,0,5.12,0.853,6.827,3.413l37.547,45.227l130.56-81.067c3.413-1.707,7.68-1.707,10.24,1.707
		c2.56,2.56,3.413,7.68,0.853,11.093l-102.4,153.6C336.736,356.028,334.176,357.735,331.616,357.735z M84.15,340.668h243.2
		l77.653-116.907l-103.253,64c-3.413,2.56-8.533,1.707-11.093-1.707l-40.107-47.787H84.15V340.668z"/>
	<path d="M434.016,204.135c-2.56,0-5.12-1.707-6.827-3.413c-2.56-4.267-1.707-9.387,2.56-11.947l25.6-17.067
		c3.413-2.56,7.68-1.707,11.093,0.853l17.067,17.067c3.413,3.413,3.413,8.533,0,11.947s-8.533,3.413-11.947,0l-11.947-11.947
		l-19.627,12.8C437.43,203.281,435.723,204.135,434.016,204.135z"/>
	<path d="M160.95,238.268c-5.12,0-8.533-3.413-8.533-8.533v-42.667c0-5.12,3.413-8.533,8.533-8.533c5.12,0,8.533,3.413,8.533,8.533
		v42.667C169.483,234.855,166.07,238.268,160.95,238.268z"/>
	<path d="M186.55,195.601h-51.2c-5.12,0-8.533-3.413-8.533-8.533c0-5.12,3.413-8.533,8.533-8.533h51.2
		c5.12,0,8.533,3.413,8.533,8.533C195.083,192.188,191.67,195.601,186.55,195.601z"/>
	<path d="M75.616,255.335c-1.707,0-3.413-0.853-4.267-1.707L3.083,210.961c-3.413-2.56-5.12-6.827-3.413-10.24l17.067-42.667
		c0.853-2.56,2.56-4.267,5.12-5.12c2.56,0,5.12,0,7.68,1.707l51.2,34.133c1.707,1.707,3.413,4.267,3.413,6.827v51.2
		c0,3.413-1.707,5.973-4.267,7.68C78.176,255.335,77.323,255.335,75.616,255.335z M17.59,200.721l49.493,30.72v-31.573l-38.4-25.6
		L17.59,200.721z"/>
	<path d="M476.683,349.201c-2.56,0-5.12,0-6.827-0.853c-16.213-3.413-28.16-18.773-26.453-35.84c0-5.973,2.56-11.093,5.973-15.36
		c5.12-6.827,9.387-14.507,12.8-22.187l7.68-14.507c2.56-5.973,11.947-5.973,15.36,0l9.387,17.92
		c2.56,5.973,5.973,11.093,10.24,17.067l2.56,4.267c2.56,4.267,4.267,9.387,4.267,15.36c0,10.24-4.267,19.627-12.8,26.453
		C492.043,346.641,484.363,349.201,476.683,349.201z M476.683,282.641c-4.267,8.533-8.533,17.067-14.507,24.747
		c-1.707,1.707-2.56,3.413-2.56,5.973c-0.853,8.533,5.12,16.213,13.653,17.92c5.12,0.853,10.24,0,14.507-3.413
		s5.973-7.68,5.973-13.653c0-2.56-0.853-4.267-1.707-5.973l-2.56-4.267c-3.413-5.973-7.68-11.947-11.093-18.773l0,0L476.683,282.641
		z"/>
</g>
<g>
</g>
<g>
</g>
<g>
</g>
<g>
</g>
<g>
</g>
<g>
</g>
<g>
</g>
<g>
</g>
<g>
</g>
<g>
</g>
<g>
</g>
<g>
</g>
<g>
</g>
<g>
</g>
<g>
</g>
</svg>
