<?xml version="1.0" encoding="iso-8859-1"?>
<!-- Generator: Adobe Illustrator 19.0.0, SVG Export Plug-In . SVG Version: 6.00 Build 0)  -->
<svg version="1.1" id="Layer_1" xmlns="http://www.w3.org/2000/svg" xmlns:xlink="http://www.w3.org/1999/xlink" x="0px" y="0px"
	 viewBox="0 0 512 512" style="enable-background:new 0 0 512 512;" xml:space="preserve">
<path style="fill:#ACABB1;" d="M341.333,120.37V23.273C341.333,10.42,330.913,0,318.061,0H256h-62.061
	c-12.853,0-23.273,10.42-23.273,23.273v97.097c-3.519,2.507-6.924,5.165-10.204,7.964c-1.094,0.932-2.174,1.882-3.24,2.845
	c-18.117,16.387-32.157,37.204-40.391,60.723c-0.484,1.384-0.95,2.776-1.393,4.178c-2.219,7.01-3.928,14.243-5.081,21.659
	c-1.153,7.415-1.752,15.011-1.752,22.745v248.242c0,12.853,10.42,23.273,23.273,23.273H256h124.121
	c12.853,0,23.273-10.42,23.273-23.273V240.485C403.394,190.988,378.869,147.112,341.333,120.37z"/>
<path style="fill:#DEDEE0;" d="M380.121,217.212h-2.211h-23.803H256h-98.107H134.09h-2.211c-12.853,0-23.273,10.42-23.273,23.273
	v248.242c0,12.853,10.42,23.273,23.273,23.273H256h124.121c12.853,0,23.273-10.42,23.273-23.273V240.485
	C403.394,227.632,392.974,217.212,380.121,217.212z"/>
<g>
	<polygon style="fill:#D8143A;" points="276.688,426.668 276.688,385.296 318.061,385.296 318.061,343.923 276.688,343.923 
		276.688,302.547 256,302.547 256,426.668 	"/>
	<polygon style="fill:#D8143A;" points="235.312,343.923 193.939,343.923 193.939,385.296 235.312,385.296 235.312,426.668 
		256,426.668 256,302.547 235.312,302.547 	"/>
</g>
<path style="fill:#D6D5D8;" d="M235.312,426.668v-41.373h-41.373v-41.374h41.373v-41.374H256v-85.335h-98.107H134.09h-2.211
	c-12.853,0-23.273,10.42-23.273,23.273v248.242c0,12.853,10.42,23.273,23.273,23.273H256v-85.332H235.312z"/>
<path style="fill:#898890;" d="M131.879,217.212h2.211h23.803H256V93.091c-13.421,0-26.424,1.814-38.788,5.19
	c-8.051,2.199-15.83,5.064-23.273,8.533c-8.19,3.818-15.979,8.36-23.273,13.556c-37.536,26.742-62.061,70.619-62.061,120.115
	C108.606,227.632,119.026,217.212,131.879,217.212z"/>
<path style="fill:#FFB655;" d="M318.061,0H256h-62.061c-12.853,0-23.273,10.42-23.273,23.273v97.097
	c7.294-5.196,15.082-9.737,23.273-13.556c7.443-3.469,15.222-6.335,23.273-8.533c12.364-3.376,25.367-5.19,38.788-5.19
	c13.421,0,26.424,1.814,38.788,5.19c8.051,2.199,15.83,5.064,23.273,8.533c8.19,3.818,15.979,8.36,23.273,13.556V23.273
	C341.333,10.42,330.913,0,318.061,0z"/>
<path style="fill:#EE8700;" d="M193.939,0c-12.853,0-23.273,10.42-23.273,23.273v97.097c7.294-5.196,15.082-9.737,23.273-13.556
	c7.443-3.469,15.222-6.335,23.273-8.533c12.364-3.376,25.367-5.19,38.788-5.19V0H193.939z"/>
<g>
</g>
<g>
</g>
<g>
</g>
<g>
</g>
<g>
</g>
<g>
</g>
<g>
</g>
<g>
</g>
<g>
</g>
<g>
</g>
<g>
</g>
<g>
</g>
<g>
</g>
<g>
</g>
<g>
</g>
</svg>
