<?xml version="1.0" encoding="iso-8859-1"?>
<!-- Generator: Adobe Illustrator 19.0.0, SVG Export Plug-In . SVG Version: 6.00 Build 0)  -->
<svg version="1.1" id="Layer_1" xmlns="http://www.w3.org/2000/svg" xmlns:xlink="http://www.w3.org/1999/xlink" x="0px" y="0px"
	 viewBox="0 0 512 512" style="enable-background:new 0 0 512 512;" xml:space="preserve">
<g>
	<path style="fill:#88C057;" d="M392.835,512h-273.62c-9.754,0-17.655-7.901-17.655-17.655v-52.966
		c-57.98-135.583-59.825-245.822,0-370.759V17.655C101.56,7.901,109.46,0,119.215,0h273.62c9.754,0,17.655,7.901,17.655,17.655
		v52.966c59.833,130.216,57.838,240.675,0,370.759v52.966C410.49,504.099,402.589,512,392.835,512"/>
	<g>
		<path style="fill:#75A348;" d="M410.49,70.621H101.56V17.655C101.56,7.901,109.46,0,119.215,0h273.62
			c9.754,0,17.655,7.901,17.655,17.655V70.621z"/>
		<path style="fill:#75A348;" d="M392.835,512h-273.62c-9.754,0-17.655-7.901-17.655-17.655v-52.966h308.93v52.966
			C410.49,504.099,402.589,512,392.835,512"/>
		<path style="fill:#75A348;" d="M101.539,70.657c-59.798,124.902-57.953,235.123,0,370.67
			C159.351,311.279,161.346,200.837,101.539,70.657"/>
		<path style="fill:#75A348;" d="M410.482,70.621c-59.798,124.902-57.953,235.123,0,370.67
			C468.294,311.243,470.289,200.801,410.482,70.621"/>
	</g>
	<path style="fill:#A46F3E;" d="M204.878,326.621h-15.086v-15.086c0-64.795,52.533-117.327,117.327-117.327h15.086v15.086
		C322.205,274.088,269.672,326.621,204.878,326.621"/>
	<path style="fill:#B27C4F;" d="M322.206,194.207h-9.331c-10.558,30.694-24.876,50.82-63.753,62.146
		c-35.866,10.443-49.329,22.987-58.739,43.467c-0.38,3.858-0.591,7.759-0.591,11.714v15.086h9.304
		c10.443-31.267,16.622-42.161,54.952-53.319c36.838-10.717,55.57-29.396,67.663-54.148c0.265-3.257,0.494-6.532,0.494-9.86V194.207
		z"/>
</g>
<g>
</g>
<g>
</g>
<g>
</g>
<g>
</g>
<g>
</g>
<g>
</g>
<g>
</g>
<g>
</g>
<g>
</g>
<g>
</g>
<g>
</g>
<g>
</g>
<g>
</g>
<g>
</g>
<g>
</g>
</svg>
