<?xml version="1.0" encoding="iso-8859-1"?>
<!-- Generator: Adobe Illustrator 19.0.0, SVG Export Plug-In . SVG Version: 6.00 Build 0)  -->
<svg version="1.1" id="Layer_1" xmlns="http://www.w3.org/2000/svg" xmlns:xlink="http://www.w3.org/1999/xlink" x="0px" y="0px"
	 viewBox="0 0 512 512" style="enable-background:new 0 0 512 512;" xml:space="preserve">
<path style="fill:#CF8F3D;" d="M77.913,58.339h356.174v442.53c0,6.147-4.983,11.13-11.13,11.13H89.043
	c-6.147,0-11.13-4.983-11.13-11.13V58.339L77.913,58.339z"/>
<path style="fill:#663310;" d="M77.913,80.6V0l44.52,29.907L166.959,0l44.52,29.907L255.999,0l44.528,29.907L345.045,0l44.52,29.907
	L434.087,0v80.6h-40.702h-7.642h-40.698h-40.696h-7.645h-40.704h-40.693h-7.654h-40.693h-40.704h-7.64H77.913L77.913,80.6z"/>
<path style="fill:#391B10;" d="M215.013,432.988c0,4.917-3.987,8.904-8.904,8.904h-2.038c-4.917,0-8.904-3.987-8.904-8.904
	s3.987-8.904,8.904-8.904h2.038C211.026,424.084,215.013,428.071,215.013,432.988z M257.023,424.084h-2.038
	c-4.917,0-8.904,3.987-8.904,8.904s3.987,8.904,8.904,8.904h2.038c4.917,0,8.904-3.987,8.904-8.904S261.941,424.084,257.023,424.084
	z M307.935,424.084h-2.038c-4.917,0-8.904,3.987-8.904,8.904s3.987,8.904,8.904,8.904h2.038c4.917,0,8.904-3.987,8.904-8.904
	S312.853,424.084,307.935,424.084z M231.564,367.618h-2.038c-4.917,0-8.904,3.987-8.904,8.904c0,4.917,3.987,8.904,8.904,8.904
	h2.038c4.917,0,8.904-3.987,8.904-8.904C240.469,371.605,236.483,367.618,231.564,367.618z M282.479,367.618h-2.038
	c-4.917,0-8.904,3.987-8.904,8.904c0,4.917,3.987,8.904,8.904,8.904h2.038c4.917,0,8.904-3.987,8.904-8.904
	C291.384,371.605,287.397,367.618,282.479,367.618z"/>
<path style="fill:#874D20;" d="M255.999,168.037L255.999,168.037c31.018,0,56.386,25.607,56.386,56.909v22.764
	c0,31.302-25.368,56.909-56.386,56.909l0,0c-31.009,0-56.38-25.607-56.38-56.909v-22.764
	C199.619,193.644,224.989,168.037,255.999,168.037L255.999,168.037z"/>
<path style="fill:#663310;" d="M312.385,224.946v22.764c0,31.302-25.368,56.909-56.386,56.909c-0.382,0-0.758-0.022-1.138-0.029
	c-16.814-17.849-12.791-49.808,1.832-68.221c14.43-18.177,17.86-50.282,1.987-68.263
	C288.464,169.532,312.385,194.551,312.385,224.946z"/>
<path style="fill:#391B10;" d="M262.115,298.135c3.58,3.371,3.749,9.007,0.377,12.587c-1.752,1.86-4.115,2.799-6.483,2.799
	c-2.189,0-4.383-0.803-6.103-2.422c-10.119-9.53-15.467-23.697-15.058-39.889c0.373-14.798,5.633-29.639,14.431-40.716
	c13.207-16.638,13.513-43.842,0.628-55.974c-3.58-3.371-3.75-9.007-0.378-12.587c3.373-3.581,9.008-3.75,12.587-0.378
	c21.794,20.522,18.078,58.638,1.111,80.013C250.868,257.128,247.768,284.624,262.115,298.135z"/>
<g>
</g>
<g>
</g>
<g>
</g>
<g>
</g>
<g>
</g>
<g>
</g>
<g>
</g>
<g>
</g>
<g>
</g>
<g>
</g>
<g>
</g>
<g>
</g>
<g>
</g>
<g>
</g>
<g>
</g>
</svg>
