<?xml version="1.0" encoding="iso-8859-1"?>
<!-- Generator: Adobe Illustrator 19.0.0, SVG Export Plug-In . SVG Version: 6.00 Build 0)  -->
<svg version="1.1" id="Layer_1" xmlns="http://www.w3.org/2000/svg" xmlns:xlink="http://www.w3.org/1999/xlink" x="0px" y="0px"
	 viewBox="0 0 496.246 496.246" style="enable-background:new 0 0 496.246 496.246;" xml:space="preserve">
<path style="fill:#BFAB8A;" d="M63.409,386.983c0,12.469-10.106,11.012-22.56,11.012l0,0c-12.453,0-22.567,1.449-22.567-11.012
	l-8.019-38.628c0-12.469,18.133-22.567,30.586-22.567l0,0c12.453,0,30.594,10.098,30.594,22.567L63.409,386.983z"/>
<path style="fill:#AD997B;" d="M54.918,386.983c0,12.469-6.317,11.012-14.068,11.012l0,0c-7.751,0-14.052,1.449-14.052-11.012
	l-5.002-38.628c0-12.469,11.303-22.567,19.054-22.567l0,0c7.751,0,19.046,10.098,19.046,22.567L54.918,386.983z"/>
<path style="fill:#BFAB8A;" d="M167.054,386.983c0,12.469-10.106,11.012-22.56,11.012l0,0c-12.461,0-22.567,1.449-22.567-11.012
	l-8.042-38.628c0-12.469,18.148-22.567,30.61-22.567l0,0c12.453,0,30.578,10.098,30.578,22.567L167.054,386.983z"/>
<path style="fill:#AD997B;" d="M158.547,386.983c0,12.469-6.309,11.012-14.052,11.012l0,0c-7.767,0-14.052,1.449-14.052-11.012
	l-5.018-38.628c0-12.469,11.303-22.567,19.07-22.567l0,0c7.743,0,19.046,10.098,19.046,22.567L158.547,386.983z"/>
<path style="fill:#BFAB8A;" d="M270.683,386.983c0,12.469-10.098,11.012-22.56,11.012l0,0c-12.461,0-22.56,1.449-22.56-11.012
	l-8.042-38.628c0-12.469,18.141-22.567,30.602-22.567l0,0c12.461,0,30.594,10.098,30.594,22.567L270.683,386.983z"/>
<path style="fill:#AD997B;" d="M262.176,386.983c0,12.469-6.294,11.012-14.052,11.012l0,0c-7.743,0-14.052,1.449-14.052-11.012
	l-5.002-38.628c0-12.469,11.311-22.567,19.054-22.567l0,0c7.759,0,19.07,10.098,19.07,22.567L262.176,386.983z"/>
<path style="fill:#BFAB8A;" d="M374.319,386.983c0,12.469-10.106,11.012-22.567,11.012l0,0c-12.446,0-22.559,1.449-22.559-11.012
	l-8.019-38.628c0-12.469,18.133-22.567,30.578-22.567l0,0c12.461,0,30.602,10.098,30.602,22.567L374.319,386.983z"/>
<path style="fill:#AD997B;" d="M365.82,386.983c0,12.469-6.302,11.012-14.068,11.012l0,0c-7.751,0-14.052,1.449-14.052-11.012
	l-4.994-38.628c0-12.469,11.296-22.567,19.046-22.567l0,0c7.767,0,19.07,10.098,19.07,22.567L365.82,386.983z"/>
<path style="fill:#BFAB8A;" d="M477.972,386.983c0,12.469-10.098,11.012-22.567,11.012l0,0c-12.453,0-22.56,1.449-22.56-11.012
	l-8.034-38.628c0-12.469,18.141-22.567,30.594-22.567l0,0c12.469,0,30.586,10.098,30.586,22.567L477.972,386.983z"/>
<path style="fill:#AD997B;" d="M469.457,386.983c0,12.469-6.302,11.012-14.052,11.012l0,0c-7.759,0-14.052,1.449-14.052-11.012
	l-5.002-38.628c0-12.469,11.296-22.567,19.054-22.567l0,0c7.751,0,19.054,10.098,19.054,22.567L469.457,386.983z"/>
<path style="fill:#BFAB8A;" d="M496.246,319.06c0,23.465-19.023,43.284-42.472,43.284H42.464C19.023,362.344,0,342.526,0,319.06
	v-62.291c0-23.457,19.023-44.087,42.464-44.087h411.317c23.442,0,42.465,20.63,42.465,44.095V319.06z"/>
<path style="fill:#CCB696;" d="M453.774,212.682H42.464C19.023,212.682,0,233.312,0,256.777v4.246
	c0,23.457,19.023,46.182,42.464,46.182h411.317c23.442,0,42.465-22.725,42.465-46.19v-4.246
	C496.246,233.312,477.223,212.682,453.774,212.682z"/>
<path style="fill:#DBC3A1;" d="M139.288,235.864c0,6.561-21.945,15.336-49.026,15.336s-49.026-8.783-49.026-15.336
	c0-6.561,21.945-11.886,49.026-11.886S139.288,229.295,139.288,235.864z"/>
<ellipse style="fill:#9E8B69;" cx="90.262" cy="235.864" rx="49.026" ry="11.886"/>
<path style="fill:#7F6D50;" d="M139.288,235.864c0,6.561-21.945,11.886-49.026,11.886s-49.026-5.333-49.026-11.886"/>
<path style="fill:#E8B277;" d="M145.723,185.349c0,30.649-24.828,55.469-55.461,55.469s-55.469-24.828-55.469-55.469
	c0-30.625,24.836-87.142,55.469-87.142S145.723,154.724,145.723,185.349z"/>
<path style="fill:#EFBF8B;" d="M34.792,185.349c0-30.625,24.836-87.142,55.469-87.142"/>
<path style="fill:#D89E60;" d="M90.262,98.199c30.633,0,55.461,56.517,55.461,87.142c0,30.649-24.828,55.469-55.461,55.469"/>
<path style="fill:#DBC3A1;" d="M297.157,235.864c0,6.561-21.953,15.336-49.034,15.336s-49.034-8.783-49.034-15.336
	c0-6.561,21.953-11.886,49.034-11.886S297.157,229.295,297.157,235.864z"/>
<ellipse style="fill:#9E8B69;" cx="248.123" cy="235.864" rx="49.034" ry="11.886"/>
<path style="fill:#7F6D50;" d="M297.157,235.864c0,6.561-21.953,11.886-49.034,11.886s-49.034-5.333-49.034-11.886"/>
<path style="fill:#E8B277;" d="M303.585,185.349c0,30.649-24.836,55.469-55.461,55.469c-30.633,0-55.469-24.828-55.469-55.469
	c0-30.625,24.836-87.142,55.469-87.142C278.749,98.199,303.585,154.724,303.585,185.349z"/>
<path style="fill:#EFBF8B;" d="M192.654,185.349c0-30.625,24.836-87.142,55.469-87.142"/>
<path style="fill:#D89E60;" d="M248.123,98.199c30.625,0,55.461,56.517,55.461,87.142c0,30.649-24.836,55.469-55.461,55.469"/>
<path style="fill:#DBC3A1;" d="M455.018,235.864c0,6.561-21.953,15.336-49.034,15.336s-49.034-8.783-49.034-15.336
	c0-6.561,21.953-11.886,49.034-11.886S455.018,229.295,455.018,235.864z"/>
<ellipse style="fill:#9E8B69;" cx="405.977" cy="235.864" rx="49.034" ry="11.886"/>
<path style="fill:#7F6D50;" d="M455.018,235.864c0,6.561-21.953,11.886-49.034,11.886s-49.034-5.333-49.034-11.886"/>
<path style="fill:#E8B277;" d="M461.446,185.349c0,30.649-24.836,55.469-55.461,55.469c-30.633,0-55.469-24.828-55.469-55.469
	c0-30.625,24.836-87.142,55.469-87.142C436.61,98.199,461.446,154.724,461.446,185.349z"/>
<path style="fill:#EFBF8B;" d="M350.515,185.349c0-30.625,24.836-87.142,55.469-87.142"/>
<path style="fill:#D89E60;" d="M405.984,98.199c30.625,0,55.461,56.517,55.461,87.142c0,30.649-24.836,55.469-55.461,55.469"/>
<g>
</g>
<g>
</g>
<g>
</g>
<g>
</g>
<g>
</g>
<g>
</g>
<g>
</g>
<g>
</g>
<g>
</g>
<g>
</g>
<g>
</g>
<g>
</g>
<g>
</g>
<g>
</g>
<g>
</g>
</svg>
