<?xml version="1.0" encoding="iso-8859-1"?>
<!-- Generator: Adobe Illustrator 19.0.0, SVG Export Plug-In . SVG Version: 6.00 Build 0)  -->
<svg version="1.1" id="Capa_1" xmlns="http://www.w3.org/2000/svg" xmlns:xlink="http://www.w3.org/1999/xlink" x="0px" y="0px"
	 viewBox="0 0 470 470" style="enable-background:new 0 0 470 470;" xml:space="preserve">
<g>
	<path style="fill:#E63A2A;" d="M166.99,270.876c2.975,21.335,23.498,32.499,42.232,32.499c0.484,0,0.97-0.007,1.456-0.021
		c20.769-0.595,42.78-11.497,61.98-30.697c19.2-19.201,30.102-41.212,30.696-61.98c0.555-19.382-10.422-40.612-32.478-43.688
		c-1.739-0.243-3.507-0.365-5.256-0.365c-19.021,0-34.879,13.756-36.886,31.998c-1.003,9.114-3.775,15.347-9.271,20.842
		c-5.495,5.496-11.729,8.268-20.843,9.271c-9.478,1.042-18,5.861-23.999,13.568C168.362,250.349,165.58,260.764,166.99,270.876z"/>
	<path style="fill:#FFFFFF;" d="M391.332,351.483V118.516H78.668v232.967H391.332z M196.981,213.825
		c6.493-0.714,9.272-2.362,11.877-4.967c2.604-2.604,4.252-5.383,4.967-11.876c2.845-25.858,25.112-45.357,51.796-45.357
		c2.439,0,4.905,0.171,7.327,0.509c13.605,1.897,25.67,9.243,33.973,20.683c7.77,10.706,11.828,24.305,11.427,38.291
		c-0.705,24.612-13.165,50.238-35.084,72.157c-21.919,21.919-47.545,34.379-72.157,35.084c-0.63,0.018-1.258,0.027-1.885,0.027
		c-29.409,0-53.418-19.105-57.089-45.428c-1.966-14.104,1.916-28.631,10.653-39.856C171.295,222.157,183.44,215.315,196.981,213.825
		z"/>
	<path style="fill:#B9A550;" d="M101.168,435.494h-22.5V455h312.664v-19.506H131.168c-4.142,0-7.5-3.358-7.5-7.5s3.358-7.5,7.5-7.5
		h260.164v-19.505h-52.5c-4.142,0-7.5-3.358-7.5-7.5s3.358-7.5,7.5-7.5h52.5v-19.505H78.668v19.505h230.164
		c4.142,0,7.5,3.358,7.5,7.5s-3.358,7.5-7.5,7.5H78.668v19.505h22.5c4.142,0,7.5,3.358,7.5,7.5S105.31,435.494,101.168,435.494z"/>
	<rect x="78.668" y="15" style="fill:#B9A550;" width="312.664" height="19.505"/>
	<path style="fill:#B9A550;" d="M101.168,84.011h-22.5v19.505h312.664V84.011H131.168c-4.142,0-7.5-3.358-7.5-7.5s3.358-7.5,7.5-7.5
		h260.164V49.505H78.668v19.505h22.5c4.142,0,7.5,3.358,7.5,7.5S105.31,84.011,101.168,84.011z"/>
	<path style="fill:#34150C;" d="M152.133,272.948c3.67,26.322,27.68,45.428,57.089,45.428c0.627,0,1.255-0.009,1.885-0.027
		c24.612-0.705,50.238-13.165,72.157-35.084c21.919-21.919,34.379-47.545,35.084-72.157c0.4-13.986-3.658-27.584-11.427-38.291
		c-8.303-11.44-20.368-18.786-33.973-20.683c-2.422-0.338-4.888-0.509-7.327-0.509c-26.684,0-48.951,19.499-51.796,45.357
		c-0.714,6.493-2.362,9.272-4.967,11.876c-2.605,2.605-5.384,4.253-11.877,4.967c-13.542,1.49-25.686,8.332-34.195,19.266
		C154.049,244.316,150.167,258.844,152.133,272.948z M198.622,228.735c9.114-1.003,15.348-3.775,20.843-9.271
		c5.495-5.495,8.268-11.728,9.271-20.842c2.007-18.242,17.864-31.998,36.886-31.998c1.749,0,3.517,0.123,5.256,0.365
		c22.055,3.075,33.033,24.305,32.478,43.688c-0.595,20.768-11.497,42.78-30.696,61.98c-19.2,19.2-41.212,30.102-61.98,30.697
		c-0.486,0.014-0.971,0.021-1.456,0.021c-18.735,0-39.258-11.164-42.232-32.499c-1.41-10.113,1.372-20.527,7.634-28.573
		C180.622,234.597,189.145,229.778,198.622,228.735z"/>
	<path style="fill:#34150C;" d="M412.832,455h-6.5v-20.375c2.378-1.258,4-3.754,4-6.631s-1.622-5.373-4-6.631V400.12
		c2.378-1.258,4-3.754,4-6.631s-1.622-5.373-4-6.631V83.142c2.378-1.258,4-3.754,4-6.631s-1.622-5.373-4-6.631V48.636
		c2.378-1.258,4-3.754,4-6.631s-1.622-5.373-4-6.631V15h6.5c4.142,0,7.5-3.358,7.5-7.5s-3.358-7.5-7.5-7.5H57.168
		c-4.142,0-7.5,3.358-7.5,7.5s3.358,7.5,7.5,7.5h6.5v20.375c-2.378,1.258-4,3.754-4,6.631s1.622,5.373,4,6.631V69.88
		c-2.378,1.258-4,3.754-4,6.631s1.622,5.373,4,6.631v303.716c-2.378,1.258-4,3.754-4,6.631s1.622,5.373,4,6.631v21.244
		c-2.378,1.258-4,3.754-4,6.631s1.622,5.373,4,6.631V455h-6.5c-4.142,0-7.5,3.358-7.5,7.5s3.358,7.5,7.5,7.5h355.664
		c4.142,0,7.5-3.358,7.5-7.5S416.974,455,412.832,455z M391.332,15v19.505H78.668V15H391.332z M101.168,69.011h-22.5V49.505h312.664
		v19.505H131.168c-4.142,0-7.5,3.358-7.5,7.5s3.358,7.5,7.5,7.5h260.164v19.505H78.668V84.011h22.5c4.142,0,7.5-3.358,7.5-7.5
		S105.31,69.011,101.168,69.011z M391.332,118.516v232.967H78.668V118.516H391.332z M101.168,420.494h-22.5v-19.505h230.164
		c4.142,0,7.5-3.358,7.5-7.5s-3.358-7.5-7.5-7.5H78.668v-19.505h312.664v19.505h-52.5c-4.142,0-7.5,3.358-7.5,7.5s3.358,7.5,7.5,7.5
		h52.5v19.505H131.168c-4.142,0-7.5,3.358-7.5,7.5s3.358,7.5,7.5,7.5h260.164V455H78.668v-19.506h22.5c4.142,0,7.5-3.358,7.5-7.5
		S105.31,420.494,101.168,420.494z"/>
</g>
<g>
</g>
<g>
</g>
<g>
</g>
<g>
</g>
<g>
</g>
<g>
</g>
<g>
</g>
<g>
</g>
<g>
</g>
<g>
</g>
<g>
</g>
<g>
</g>
<g>
</g>
<g>
</g>
<g>
</g>
</svg>
