<?xml version="1.0" encoding="iso-8859-1"?>
<!-- Generator: Adobe Illustrator 19.0.0, SVG Export Plug-In . SVG Version: 6.00 Build 0)  -->
<svg xmlns="http://www.w3.org/2000/svg" xmlns:xlink="http://www.w3.org/1999/xlink" version="1.1" id="Capa_1" x="0px" y="0px" viewBox="0 0 455 455" style="enable-background:new 0 0 455 455;" xml:space="preserve" width="512" height="512">
<g>
	<rect x="129.51" style="fill:#F2EBD9;" width="195.98" height="59.47"/>
	<polygon style="fill:#F2EBD9;" points="263.45,112.45 263.45,212.45 47.47,192.45 47.47,132.45  "/>
	<polygon style="fill:#FFFFFF;" points="325.49,39.47 325.49,132.45 47.47,132.45 129.51,39.47  "/>
	<polygon style="fill:#F2EBD9;" points="263.45,375 243.45,455 47.47,455 47.47,395  "/>
	<rect x="47.47" y="192.45" style="fill:#C1E8E6;" width="195.98" height="202.55"/>
	<path style="fill:#FFFFFF;" d="M182.28,281.73c5.7,7.64,9.07,17.12,9.07,27.38c0,25.34-20.55,45.89-45.89,45.89   s-45.89-20.55-45.89-45.89c0-10.26,3.37-19.74,9.07-27.38l36.82-49.28L182.28,281.73z"/>
	<polygon style="fill:#FFCC75;" points="243.45,395 243.45,455 407.53,455 407.53,395 325.49,375  "/>
	<polygon style="fill:#FFCC75;" points="243.45,132.45 243.45,192.45 325.49,212.45 407.53,192.45 407.53,132.45 325.49,112.45  "/>
	<polygon style="fill:#FFCC75;" points="325.49,39.47 243.45,132.45 407.53,132.45  "/>
	<rect x="243.45" y="192.45" style="fill:#98D9D5;" width="164.08" height="202.55"/>
</g>















</svg>
