<?xml version="1.0" encoding="iso-8859-1"?>
<!-- Generator: Adobe Illustrator 16.0.0, SVG Export Plug-In . SVG Version: 6.00 Build 0)  -->
<!DOCTYPE svg PUBLIC "-//W3C//DTD SVG 1.1//EN" "http://www.w3.org/Graphics/SVG/1.1/DTD/svg11.dtd">
<svg version="1.1" xmlns="http://www.w3.org/2000/svg" xmlns:xlink="http://www.w3.org/1999/xlink" x="0px" y="0px" width="512px"
	 height="512px" viewBox="0 0 512 512" style="enable-background:new 0 0 512 512;" xml:space="preserve">
<g id="Guides_For_Artboard">
</g>
<g id="Artwork">
</g>
<g id="Layer_3">
	<g>
		<circle style="fill:#E6A52E;" cx="255.094" cy="255.971" r="245"/>
		<g>
			<path style="fill:#F6E0C2;" d="M288.215,218.518c17.66,17.631,42.888,21.09,56.243,7.715c13.34-13.361,9.833-38.57-7.829-56.205
				c-17.656-17.631-42.873-21.1-56.222-7.736C267.061,175.664,270.556,200.887,288.215,218.518z"/>
			<path style="fill:#F6E0C2;" d="M183.597,303.453c-11.813,12.398-42.858,44.992-44.082,46.35c-1.512,1.676-2.37,0.896-2.913,0.652
				c-3.328-1.496-6.967-2.207-10.726-2.064c-13.321,0.514-23.735,11.768-23.225,25.086c0.408,10.719,8.453,18.523,18.491,20.537
				c2.046,0.41,2.428,1.766,2.664,2.404c3.576,9.596,11.621,16.98,22.326,16.289c13.301-0.857,23.427-12.373,22.573-25.676
				c-0.237-3.645-1.267-7.096-2.997-10.18c-0.342-0.611-1.346-1.531,0.526-3.604c1.478-1.639,30.664-32.262,42.915-45.111
				C200.388,322.764,191.213,314.238,183.597,303.453z"/>
			<path style="fill:#664B3A;" d="M256.519,250.266c-42.462-42.395-51.922-102.004-21.09-132.887
				c-43.103,35.879-69.907,94.854-69.198,135.111c0.343,19.445,7.557,37.068,17.366,50.963
				c7.616,10.785,16.791,19.311,25.554,24.684c3.314,2.031,6.57,3.627,9.655,4.705c31.207,10.914,109.854-1.232,167.367-58.67
				c-0.02,0.01-0.038,0.02-0.058,0.029C358.074,297.99,303.15,296.82,256.519,250.266z"/>
			<path style="fill:#D46A56;" d="M368.326,138.275c-42.461-42.391-102.081-51.768-132.897-20.896
				c-30.832,30.883-21.372,90.492,21.09,132.887c46.632,46.555,101.556,47.725,129.597,23.936c1.152-0.979,2.266-1.994,3.325-3.055
				C420.264,240.273,410.787,180.676,368.326,138.275z M336.629,170.027c17.662,17.635,21.169,42.844,7.829,56.205
				c-13.355,13.375-38.583,9.916-56.243-7.715c-17.659-17.631-21.154-42.854-7.808-56.227
				C293.756,148.928,318.973,152.396,336.629,170.027z"/>
		</g>
	</g>
</g>
</svg>
