<?xml version="1.0" encoding="iso-8859-1"?>
<!-- Generator: Adobe Illustrator 19.0.0, SVG Export Plug-In . SVG Version: 6.00 Build 0)  -->
<svg version="1.1" id="Layer_1" xmlns="http://www.w3.org/2000/svg" xmlns:xlink="http://www.w3.org/1999/xlink" x="0px" y="0px"
	 viewBox="0 0 333.032 333.032" style="enable-background:new 0 0 333.032 333.032;" xml:space="preserve">
<g>
	<path style="fill:#FFE49C;" d="M229.831,88.426h-126.63c-52.854,0-95.701,42.847-95.701,95.701v15.939h318.032v-15.939
		C325.532,131.273,282.685,88.426,229.831,88.426z"/>
	<path style="fill:#F59D00;" d="M304.532,244.607H28.5c-11.598,0-21-9.402-21-21v-23.542h318.032v23.542
		C325.532,235.206,316.13,244.607,304.532,244.607z"/>
	<path style="fill:#414042;" d="M229.831,80.926h-126.63C46.296,80.926,0,127.221,0,184.126c0,13.147,0,26.288,0,39.481
		c0,15.715,12.785,28.5,28.5,28.5h276.032c15.715,0,28.5-12.785,28.5-28.5c0-13.178,0-26.32,0-39.481
		C333.032,127.221,286.736,80.926,229.831,80.926z M15,184.126c0-47.149,37.188-85.775,83.774-88.089v35.387
		c0,4.143,3.358,7.5,7.5,7.5s7.5-3.357,7.5-7.5V95.926h45.242v35.498c0,4.143,3.358,7.5,7.5,7.5s7.5-3.357,7.5-7.5V95.926h45.242
		v35.498c0,4.143,3.358,7.5,7.5,7.5s7.5-3.357,7.5-7.5V96.037c46.585,2.314,83.774,40.94,83.774,88.089v8.439H15V184.126z
		 M318.032,223.607c0,7.444-6.056,13.5-13.5,13.5H28.5c-7.444,0-13.5-6.056-13.5-13.5v-16.042h303.032V223.607z"/>
</g>
<g>
</g>
<g>
</g>
<g>
</g>
<g>
</g>
<g>
</g>
<g>
</g>
<g>
</g>
<g>
</g>
<g>
</g>
<g>
</g>
<g>
</g>
<g>
</g>
<g>
</g>
<g>
</g>
<g>
</g>
</svg>
