<?xml version="1.0" encoding="iso-8859-1"?>
<!-- Generator: Adobe Illustrator 19.0.0, SVG Export Plug-In . SVG Version: 6.00 Build 0)  -->
<svg version="1.1" id="Layer_1" xmlns="http://www.w3.org/2000/svg" xmlns:xlink="http://www.w3.org/1999/xlink" x="0px" y="0px"
	 viewBox="0 0 511.999 511.999" style="enable-background:new 0 0 511.999 511.999;" xml:space="preserve">
<path style="fill:#8C4F39;" d="M361.344,154.271H150.657c-77.572,0-140.457,62.885-140.457,140.458v26.851
	c0,19.964,16.184,36.147,36.147,36.147h419.308c19.964,0,36.147-16.184,36.147-36.147v-26.852
	C501.801,217.156,438.916,154.271,361.344,154.271z"/>
<path d="M361.344,144.072H150.657C67.585,144.072,0,211.655,0,294.729v26.852c0,25.555,20.791,46.345,46.346,46.345h419.307
	c25.556,0,46.346-20.791,46.346-46.345v-26.852C512,211.655,444.415,144.072,361.344,144.072z M491.602,321.581
	c0,14.307-11.64,25.947-25.948,25.947H46.346c-14.307,0-25.948-11.639-25.948-25.947v-26.852
	c0-71.825,58.433-130.258,130.258-130.258h4.776v65.193c0,5.632,4.566,10.199,10.199,10.199c5.633,0,10.199-4.567,10.199-10.199
	v-65.193h69.97v65.193c0,5.632,4.566,10.199,10.199,10.199c5.633,0,10.199-4.567,10.199-10.199v-65.193h69.97v27.274
	c0,5.632,4.566,10.199,10.199,10.199s10.199-4.567,10.199-10.199v-27.274h4.776c71.825,0,130.258,58.433,130.258,130.258V321.581z"
	/>
<path d="M346.368,214.183c-5.633,0-10.199,4.567-10.199,10.199v5.282c0,5.632,4.566,10.199,10.199,10.199
	s10.199-4.567,10.199-10.199v-5.282C356.567,218.75,352.001,214.183,346.368,214.183z"/>
<g>
</g>
<g>
</g>
<g>
</g>
<g>
</g>
<g>
</g>
<g>
</g>
<g>
</g>
<g>
</g>
<g>
</g>
<g>
</g>
<g>
</g>
<g>
</g>
<g>
</g>
<g>
</g>
<g>
</g>
</svg>
