<?xml version="1.0" encoding="iso-8859-1"?>
<!-- Generator: Adobe Illustrator 16.0.0, SVG Export Plug-In . SVG Version: 6.00 Build 0)  -->
<!DOCTYPE svg PUBLIC "-//W3C//DTD SVG 1.1//EN" "http://www.w3.org/Graphics/SVG/1.1/DTD/svg11.dtd">
<svg xmlns="http://www.w3.org/2000/svg" xmlns:xlink="http://www.w3.org/1999/xlink" version="1.1" id="Layer_1" x="0px" y="0px" width="512" height="512" viewBox="0 0 329.914 329.914" style="enable-background:new 0 0 329.914 329.914;" xml:space="preserve">
<g>
	<path style="fill:#FFB65B;" d="M271.025,58.894c-29.291-29.29-67.68-43.936-106.068-43.935c-38.388,0-76.775,14.646-106.064,43.934   c-58.578,58.58-58.58,153.553,0,212.134c19.322,19.32,42.604,32.264,67.232,38.841c12.705,3.393,25.77,5.088,38.832,5.088   c13.059,0,26.117-1.694,38.818-5.084c24.635-6.574,47.924-19.52,67.25-38.845v-0.001c19.314-19.313,32.256-42.584,38.834-67.202   C323.232,153.775,310.289,98.157,271.025,58.894z"/>
	<path style="fill:#FFA828;" d="M271.025,58.894c-29.291-29.29-67.68-43.936-106.068-43.935v299.996   c13.059,0,26.117-1.694,38.818-5.084c24.635-6.574,47.924-19.52,67.25-38.845v-0.001c19.314-19.313,32.256-42.584,38.834-67.202   C323.232,153.775,310.289,98.157,271.025,58.894z"/>
	<path style="fill:#FF8600;" d="M324.668,123.524c-7.292-28.247-22.07-54.145-42.74-74.932c-0.045-0.046-0.088-0.094-0.133-0.139   c-0.068-0.068-0.133-0.14-0.201-0.207c-0.076-0.077-0.156-0.151-0.234-0.229c-0.027-0.027-0.056-0.055-0.084-0.083   C249.158,15.988,207.059,0.012,164.957,0.002c-42.266-0.01-84.532,16.069-116.708,48.244c-64.332,64.334-64.332,169.013,0,233.347   c20.508,20.507,46.086,35.281,73.971,42.727c13.967,3.729,28.332,5.593,42.7,5.593c0.012,0,0.025,0,0.037,0   c14.348-0.004,28.697-1.865,42.648-5.588c0.002,0,0.004-0.001,0.006-0.002c27.89-7.444,53.473-22.22,73.982-42.729   c0.006-0.005,0.01-0.01,0.014-0.015c20.494-20.497,35.26-46.059,42.706-73.923C331.658,180.167,331.781,151.075,324.668,123.524z    M69.461,260.379c-52.634-52.636-52.634-138.283,0-190.92c26.328-26.326,60.914-39.462,95.496-39.45   c17.068,0.005,34.137,3.197,50.21,9.617c-17.485,1.831-34.421,6.451-50.21,13.514C121.135,72.74,86.151,111.16,72.786,161.037   c-7.628,28.472-7.513,58.456,0.333,86.713c2.221,7.998,5.058,15.795,8.438,23.337C77.332,267.768,73.284,264.202,69.461,260.379z    M164.957,299.912c-10.434,0.003-20.865-1.192-31.069-3.592h-0.001c-31.898-33.945-44.206-82.42-32.122-127.52   c9.66-36.05,33.134-64.769,63.192-82.037c14.729-8.46,31.028-14.187,48.075-16.651c-20.069,14.57-36.417,33.397-48.075,54.805   c-19.547,35.891-25.912,79.032-14.524,121.53c1.243,4.641,2.704,9.206,4.339,13.7c2.828,7.779,6.248,15.311,10.186,22.552   c3.156,5.804,6.639,11.425,10.469,16.806C171.941,299.775,168.449,299.91,164.957,299.912z M208.306,292.785   c-13.595-15.491-23.517-34.029-28.896-54.102c-1.396-5.212-2.455-10.435-3.212-15.648c-7.042-48.521,13.074-96.185,50.227-125.451   c-8.938,20.056-13.689,41.539-14.236,63.113c-0.595,23.423,3.765,46.945,13.061,68.855c6.067,14.301,14.241,27.911,24.522,40.357   C237.391,279.921,223.344,287.686,208.306,292.785z M295.331,199.91c-4.718,17.651-13.034,34.179-24.343,48.53   c-0.002,0.002-0.002,0.003-0.004,0.005c-18.889-23.952-28.506-52.876-28.854-81.892c-0.294-24.506,6.03-49.074,18.963-70.771   c2.95-4.949,6.235-9.752,9.874-14.366c0.007,0.009,0.014,0.019,0.021,0.028c3.647,4.644,6.967,9.5,9.948,14.535   c12.633,21.332,19.196,45.826,18.927,70.637C299.743,177.739,298.268,188.922,295.331,199.91z"/>
	<path style="fill:#E07200;" d="M324.668,123.524c-7.292-28.247-22.07-54.145-42.74-74.932c-0.045-0.046-0.088-0.094-0.133-0.139   c-0.068-0.068-0.133-0.14-0.201-0.207c-0.076-0.077-0.156-0.151-0.234-0.229c-0.027-0.027-0.056-0.055-0.084-0.083   C249.158,15.988,207.059,0.012,164.957,0.002v30.007c17.068,0.005,34.137,3.197,50.21,9.617   c-17.485,1.831-34.421,6.451-50.21,13.514v33.624c14.729-8.46,31.028-14.187,48.075-16.651   c-20.069,14.57-36.417,33.397-48.075,54.805v157.782c3.156,5.804,6.639,11.425,10.469,16.806   c-3.484,0.271-6.977,0.405-10.469,0.407v30c14.348-0.004,28.697-1.865,42.648-5.588c0.002,0,0.004-0.001,0.006-0.002   c27.89-7.444,53.473-22.22,73.982-42.729c0.006-0.005,0.01-0.01,0.014-0.015c20.494-20.497,35.26-46.059,42.706-73.923   C331.658,180.167,331.781,151.075,324.668,123.524z M208.306,292.785c-13.595-15.491-23.517-34.029-28.896-54.102   c-1.396-5.212-2.455-10.435-3.212-15.648c-7.042-48.521,13.074-96.185,50.227-125.451c-8.938,20.056-13.689,41.539-14.236,63.113   c-0.595,23.423,3.765,46.945,13.061,68.855c6.067,14.301,14.241,27.911,24.522,40.357   C237.391,279.921,223.344,287.686,208.306,292.785z M295.331,199.91c-4.718,17.651-13.034,34.179-24.343,48.53   c-0.002,0.002-0.002,0.003-0.004,0.005c-18.889-23.952-28.506-52.876-28.854-81.892c-0.294-24.506,6.03-49.074,18.963-70.771   c2.95-4.949,6.235-9.752,9.874-14.366c0.007,0.009,0.014,0.019,0.021,0.028c3.647,4.644,6.967,9.5,9.948,14.535   c12.633,21.332,19.196,45.826,18.927,70.637C299.743,177.739,298.268,188.922,295.331,199.91z"/>
</g>















</svg>
