<?xml version="1.0" encoding="iso-8859-1"?>
<!-- Generator: Adobe Illustrator 19.0.0, SVG Export Plug-In . SVG Version: 6.00 Build 0)  -->
<svg version="1.1" id="Layer_1" xmlns="http://www.w3.org/2000/svg" xmlns:xlink="http://www.w3.org/1999/xlink" x="0px" y="0px"
	 viewBox="0 0 512 512" style="enable-background:new 0 0 512 512;" xml:space="preserve">
<path style="fill:#B5E1F4;" d="M474.813,163.301c16.074,0,29.103,13.03,29.103,29.103l0,0c0,16.074-13.03,29.103-29.103,29.103
	c16.074,0,29.103,13.03,29.103,29.103l0,0c0,16.074-13.03,29.103-29.103,29.103c16.074,0,29.103,13.03,29.103,29.103l0,0
	c0,16.074-13.03,29.103-29.103,29.103c16.074,0,29.103,13.03,29.103,29.103l0,0c0,16.074-13.03,29.103-29.103,29.103H342.232V337.92
	v-58.206v-58.206v-58.206v-58.206h132.581c16.074,0,29.103,13.03,29.103,29.103l0,0
	C503.916,150.271,490.886,163.301,474.813,163.301z"/>
<path style="fill:#A2CCDB;" d="M374.568,105.095H460.8l-43.116,291.032h-43.116V105.095z"/>
<path style="fill:#C5EAFF;" d="M406.905,115.874v280.253c0,35.718-89.279,64.674-199.411,64.674S8.084,431.844,8.084,396.126
	V115.874H406.905z"/>
<path style="fill:#F4FFF9;" d="M406.905,115.874c0,35.718-89.279,64.674-199.411,64.674S8.084,151.592,8.084,115.874
	S97.363,51.2,207.495,51.2S406.905,80.155,406.905,115.874z"/>
<path style="fill:#D7F3FF;" d="M340.435,115.874c0,23.812-59.519,43.116-132.94,43.116s-132.94-19.304-132.94-43.116
	s59.519-43.116,132.94-43.116S340.435,92.062,340.435,115.874z"/>
<path style="fill:#A2CCDB;" d="M256,115.874c0,8.688-21.716,15.732-48.505,15.732s-48.505-7.043-48.505-15.732
	s21.716-15.732,48.505-15.732S256,107.186,256,115.874z"/>
<path d="M207.495,139.69c28.168,0,56.589-7.364,56.589-23.816s-28.422-23.816-56.589-23.816s-56.589,7.364-56.589,23.816
	S179.327,139.69,207.495,139.69z M207.495,108.226c21.722,0,35.228,4.724,39.438,7.648c-4.21,2.923-17.716,7.648-39.438,7.648
	s-35.228-4.724-39.438-7.648C172.267,112.95,185.773,108.226,207.495,108.226z M512,192.404c0-11.772-5.499-22.284-14.062-29.103
	C506.501,156.482,512,145.97,512,134.198c0-20.505-16.683-37.187-37.187-37.187h-66.051c-9.275-13.422-28.795-25.161-57.768-34.558
	c-38.448-12.469-89.41-19.336-143.499-19.336S102.444,49.983,63.997,62.452C22.129,76.031,0,94.504,0,115.874v280.253
	c0,21.369,22.129,39.842,63.997,53.422c38.447,12.469,89.409,19.336,143.498,19.336s105.051-6.867,143.498-19.336
	c36.491-11.834,57.987-27.388,62.907-45.337h60.913c20.505,0,37.187-16.683,37.187-37.187c0-11.772-5.499-22.284-14.062-29.103
	c8.563-6.819,14.062-17.331,14.062-29.103s-5.499-22.284-14.062-29.103c8.563-6.819,14.062-17.331,14.062-29.103
	c0-11.772-5.499-22.284-14.062-29.103C506.501,214.689,512,204.176,512,192.404z M68.984,77.833
	c36.879-11.961,86.071-18.548,138.511-18.548s101.631,6.587,138.511,18.548c33.072,10.726,52.816,24.948,52.816,38.041
	s-19.744,27.315-52.816,38.041c-36.879,11.961-86.071,18.548-138.511,18.548s-101.631-6.587-138.511-18.548
	c-33.072-10.726-52.816-24.948-52.816-38.041S35.912,88.559,68.984,77.833z M474.813,171.385c11.59,0,21.019,9.429,21.019,21.019
	s-9.429,21.019-21.019,21.019c-4.465,0-8.084,3.618-8.084,8.084c0,4.466,3.62,8.084,8.084,8.084c11.59,0,21.019,9.429,21.019,21.019
	s-9.429,21.019-21.019,21.019c-4.465,0-8.084,3.618-8.084,8.084c0,4.466,3.62,8.084,8.084,8.084c11.59,0,21.019,9.429,21.019,21.019
	s-9.429,21.019-21.019,21.019c-4.465,0-8.084,3.618-8.084,8.084s3.62,8.084,8.084,8.084c11.59,0,21.019,9.429,21.019,21.019
	s-9.429,21.019-21.019,21.019h-59.823V353.01c0-4.466-3.62-8.084-8.084-8.084s-8.084,3.618-8.084,8.084v43.116
	c0,13.093-19.744,27.315-52.816,38.041c-36.879,11.961-86.071,18.548-138.511,18.548s-101.631-6.587-138.511-18.548
	c-33.072-10.726-52.816-24.948-52.816-38.041v-13.591c10.767,9.031,26.81,17.08,47.828,23.897
	c38.447,12.469,89.409,19.336,143.498,19.336c4.465,0,8.084-3.618,8.084-8.084c0-4.466-3.62-8.084-8.084-8.084
	c-52.44,0-101.631-6.587-138.511-18.548c-33.072-10.726-52.816-24.948-52.816-38.041v-13.678
	c16.98,14.326,46.859,26.12,87.383,34.002c4.377,0.85,8.626-2.01,9.479-6.393c0.853-4.382-2.01-8.626-6.393-9.479
	c-62.495-12.154-90.469-32.648-90.469-47.568V145.398c10.767,9.031,26.81,17.08,47.828,23.897
	c38.447,12.469,89.409,19.336,143.498,19.336s105.051-6.867,143.498-19.336c21.018-6.817,37.061-14.866,47.828-23.897v175.275
	c0,4.466,3.62,8.084,8.084,8.084s8.084-3.618,8.084-8.084v-204.8c0-0.904-0.04-1.801-0.119-2.695h59.942
	c11.59,0,21.019,9.429,21.019,21.019s-9.429,21.019-21.019,21.019c-4.465,0-8.084,3.618-8.084,8.084
	C466.728,167.767,470.348,171.385,474.813,171.385z"/>
<g>
</g>
<g>
</g>
<g>
</g>
<g>
</g>
<g>
</g>
<g>
</g>
<g>
</g>
<g>
</g>
<g>
</g>
<g>
</g>
<g>
</g>
<g>
</g>
<g>
</g>
<g>
</g>
<g>
</g>
</svg>
