<?xml version="1.0" encoding="iso-8859-1"?>
<!-- Generator: Adobe Illustrator 19.0.0, SVG Export Plug-In . SVG Version: 6.00 Build 0)  -->
<svg version="1.1" id="Layer_1" xmlns="http://www.w3.org/2000/svg" xmlns:xlink="http://www.w3.org/1999/xlink" x="0px" y="0px"
	 viewBox="0 0 136.555 136.555" style="enable-background:new 0 0 136.555 136.555;" xml:space="preserve">
<g>
	<g>
		<g>
			<g>
				<path style="fill:#0E4D15;" d="M70.566,18.316c0,0,2.356-18.279,21.608-16.723C92.174,1.594,89.406,21.04,70.566,18.316z"/>
			</g>
			<g>
				<path d="M74.062,20.078c-1.191,0-2.439-0.094-3.711-0.277l-1.462-0.211l0.189-1.466C69.101,17.943,71.628,0,89.899,0
					c0.778,0,1.584,0.033,2.396,0.099l1.589,0.129l-0.225,1.578C93.633,1.988,90.861,20.078,74.062,20.078z M72.347,17.008
					c6.787,0.547,11.914-2.036,15.323-7.618c1.468-2.403,2.266-4.842,2.667-6.386C90.19,3.001,90.044,3,89.899,3
					C76.993,3,73.295,13.098,72.347,17.008z"/>
			</g>
		</g>
		<g>
			<g>
				<path style="fill:#0E4D15;" d="M67.291,18.316c0,0-2.356-18.279-21.609-16.723C45.682,1.594,48.451,21.04,67.291,18.316z"/>
			</g>
			<g>
				<path d="M63.797,20.555c-0.001,0-0.001,0-0.002,0c-16.799,0-19.571-18.328-19.597-18.511l-0.225-1.697l1.589-0.189
					c0.812-0.065,1.618-0.129,2.396-0.129c18.27,0,20.798,17.929,20.821,18.109l0.189,1.459l-1.462,0.445
					C66.235,20.227,64.986,20.555,63.797,20.555z M47.519,3.004c0.401,1.544,1.199,4.22,2.667,6.623
					c3.116,5.102,7.694,7.928,13.609,7.928c0,0,0.001,0,0.002,0c0.555,0,1.125-0.262,1.707-0.308
					c-0.961-3.91-4.69-14.128-17.546-14.128C47.813,3.119,47.666,3.001,47.519,3.004z"/>
			</g>
		</g>
	</g>
	<g>
		<g>
			<path style="fill:#A8D626;" d="M106.07,89.439c-4.483-8.749-14.839-24.074-14.674-34.088
				c0.445-26.959-15.26-30.797-22.948-30.797h-0.8c-6.949,0-23.255,3.838-22.811,30.797c0.166,10.014-10.425,25.703-14.908,34.453
				c-6.708,13.09-6.545,43.975,36.455,44.994v0.027c1,0,1.131-0.009,1.5-0.014c0.369,0.005,1.5,0.014,1.5,0.014v-0.027
				C112.383,133.779,112.778,102.529,106.07,89.439z"/>
		</g>
		<g>
			<path d="M66.883,136.555h-1.5v-0.303c-21.76-0.879-31.437-9.555-35.728-16.767c-6.067-10.197-4.674-22.953-0.812-30.49
				c0.947-1.848,2.16-4.022,3.445-6.324c4.715-8.45,11.173-20.022,11.048-27.545c-0.188-11.455,2.547-20.142,8.131-25.817
				c5.996-6.096,13.313-6.754,16.18-6.754h0.8c3.712,0,10.795,0.87,16.526,6.695c5.53,5.623,8.238,14.329,8.047,25.876
				c-0.122,7.389,6.263,18.662,10.926,26.895c1.389,2.453,2.702,4.771,3.709,6.735c3.913,7.636,5.339,20.533-0.774,30.808
				c-4.271,7.178-13.893,15.812-35.498,16.688v0.06l-1.512,0.016l-1.508-0.014l-0.202,0.118
				C67.917,136.436,67.65,136.555,66.883,136.555z M67.648,25.555c-1.942,0-8.695,0.423-14.042,5.857
				c-4.999,5.082-7.445,13.044-7.27,23.665c0.138,8.329-6.275,19.821-11.428,29.056c-1.271,2.278-2.472,4.43-3.395,6.23
				c-3.498,6.826-4.764,18.37,0.72,27.588c5.736,9.639,17.729,14.946,34.686,15.348l0.93,0.023c0.099-0.001,0.179-0.003,0.256-0.004
				l0.258-0.005l0.67,0.006l0.815-0.02c16.834-0.398,28.748-5.679,34.455-15.27c5.531-9.295,4.23-20.98,0.682-27.906
				c-0.978-1.908-2.275-4.199-3.649-6.624c-5.101-9.008-11.451-20.217-11.315-28.422c0.177-10.714-2.241-18.695-7.186-23.723
				c-4.963-5.047-11.145-5.8-14.387-5.8h-0.8V25.555z"/>
		</g>
	</g>
	<g>
		<g>
			<path style="fill:#A8D626;" d="M66.83,126.389l-0.739-0.021c-9.817-0.236-22.695-2.496-28.294-11.91
				c-4.479-7.53-2.819-16.676-0.611-20.985c0.941-1.836,2.281-4.178,3.7-6.656c3.509-6.132,7.557-13.205,10.044-20.103"/>
		</g>
		<g>
			<path d="M66.789,127.888l-0.739-0.021c-10.189-0.245-23.592-2.638-29.542-12.643c-4.79-8.052-3.017-17.829-0.657-22.436
				c0.956-1.865,2.302-4.219,3.728-6.71c3.517-6.144,7.497-13.099,9.94-19.874l2.822,1.018c-2.532,7.021-6.581,14.097-10.154,20.339
				c-1.413,2.469-2.743,4.792-3.667,6.596c-2.056,4.013-3.602,12.527,0.565,19.534c5.25,8.826,17.603,10.95,27.042,11.177
				l0.745,0.021L66.789,127.888z"/>
		</g>
	</g>
</g>
<g>
</g>
<g>
</g>
<g>
</g>
<g>
</g>
<g>
</g>
<g>
</g>
<g>
</g>
<g>
</g>
<g>
</g>
<g>
</g>
<g>
</g>
<g>
</g>
<g>
</g>
<g>
</g>
<g>
</g>
</svg>
