<?xml version="1.0" encoding="iso-8859-1"?>
<!-- Generator: Adobe Illustrator 19.0.0, SVG Export Plug-In . SVG Version: 6.00 Build 0)  -->
<svg version="1.1" id="Layer_1" xmlns="http://www.w3.org/2000/svg" xmlns:xlink="http://www.w3.org/1999/xlink" x="0px" y="0px"
	 viewBox="0 0 512 512" style="enable-background:new 0 0 512 512;" xml:space="preserve">
<g transform="translate(1 1)">
	<path style="fill:#FFDD09;" d="M236.227,219.16L203.8,186.733l-23.893-23.893c-6.827-6.827-15.36-10.24-23.893-10.24H75.8v-34.133
		c0-9.387-7.68-17.067-17.067-17.067H41.667c-9.387,0-17.067,7.68-17.067,17.067V152.6c-9.387,0-17.067,7.68-17.067,17.067V485.4
		c0,9.387,7.68,17.067,17.067,17.067h204.8c9.387,0,17.067-7.68,17.067-17.067V243.907
		C246.467,234.52,243.053,225.987,236.227,219.16"/>
	<path style="fill:#FFFFFF;" d="M33.133,485.4V169.667c0-9.387,7.68-17.067,17.067-17.067v-34.133c0-7.68,5.12-14.507,12.8-16.213
		c-1.707-0.853-2.56-0.853-4.267-0.853H41.667c-9.387,0-17.067,7.68-17.067,17.067V152.6c-9.387,0-17.067,7.68-17.067,17.067V485.4
		c0,9.387,7.68,17.067,17.067,17.067h25.6C40.813,502.467,33.133,494.787,33.133,485.4"/>
	<path style="fill:#FFDD09;" d="M492.227,133.827L426.52,68.12c-5.973-5.973-14.507-9.387-23.893-9.387H289.133V24.6
		c0-9.387-7.68-17.067-17.067-17.067h-34.133c-9.387,0-17.067,7.68-17.067,17.067v34.133h-8.533
		c-18.773,0-34.133,15.36-34.133,34.133v68.267c0.853,0.853,0.853,0.853,1.707,0.853l23.893,24.747l32.427,32.427
		c6.827,6.827,10.24,15.36,10.24,23.893V485.4c0,9.387-7.68,17.067-17.067,17.067h238.933c18.773,0,34.133-15.36,34.133-34.133
		v-309.76C502.467,149.187,499.053,140.653,492.227,133.827"/>
	<path style="fill:#FD9808;" d="M492.227,133.827L426.52,68.12c-5.973-5.973-14.507-9.387-23.893-9.387h-25.6
		c9.387,0,17.92,3.413,23.893,10.24l65.707,65.707c6.827,6.827,10.24,15.36,10.24,23.893v309.76
		c0,18.773-15.36,34.133-34.133,34.133h25.6c18.773,0,34.133-15.36,34.133-34.133v-309.76
		C502.467,149.187,499.053,140.653,492.227,133.827"/>
	<path style="fill:#1CD759;" d="M382.147,109.933h-135.68c-9.387,0-17.067,7.68-17.067,17.067v78.507
		c0,4.267,1.707,8.533,5.12,11.947l6.827,6.827c3.413,3.413,5.12,7.68,5.12,11.947V434.2c0,9.387,7.68,17.067,17.067,17.067H434.2
		c9.387,0,17.067-7.68,17.067-17.067V179.053c0-9.387-3.413-17.92-10.24-23.893l-34.987-34.987
		C399.213,113.347,390.68,109.933,382.147,109.933"/>
	<path style="fill:#15A143;" d="M441.027,155.16l-34.987-34.987c-6.827-6.827-15.36-10.24-23.893-10.24h-25.6
		c9.387,0,17.92,3.413,23.893,10.24l34.987,34.987c6.827,6.827,10.24,15.36,10.24,23.893V434.2c0,9.387-7.68,17.067-17.067,17.067
		h25.6c9.387,0,17.067-7.68,17.067-17.067V179.053C451.267,170.52,447.853,161.987,441.027,155.16"/>
	<path style="fill:#1CD759;" d="M67.267,417.133v-179.2c0-9.387,7.68-17.067,17.067-17.067h52.907c4.267,0,8.533,1.707,11.947,5.12
		l32.427,32.427c3.413,3.413,5.12,7.68,5.12,11.947v146.773c0,9.387-7.68,17.067-17.067,17.067H84.333
		C74.947,434.2,67.267,426.52,67.267,417.133"/>
	<path style="fill:#15A143;" d="M181.613,258.413l-32.427-32.427c-3.413-3.413-7.68-5.12-11.947-5.12h-25.6
		c4.267,0,8.533,1.707,11.947,5.12l32.427,32.427c3.413,3.413,5.12,7.68,5.12,11.947v146.773c0,9.387-7.68,17.067-17.067,17.067
		h25.6c9.387,0,17.067-7.68,17.067-17.067V270.36C186.733,266.093,185.027,261.827,181.613,258.413"/>
	<path style="fill:#54C9FD;" d="M355.693,183.32l-15.36-30.72l-11.947,24.747c-6.827,13.653-13.653,28.16-23.04,40.107
		c-4.267,5.12-6.827,11.093-6.827,17.92c-1.707,20.48,12.8,40.107,33.28,44.373c27.307,5.973,52.053-15.36,52.053-41.813
		c0-6.827-1.707-12.8-5.12-17.92C370.2,208.067,361.667,196.12,355.693,183.32"/>
	<path style="fill:#33A9F8;" d="M377.88,220.013c-7.68-11.947-15.36-23.893-22.187-36.693l-15.36-30.72l-11.947,24.747
		c0,0,0,0.853-0.853,0.853l2.56,5.12c6.827,12.8,14.507,24.747,22.187,36.693c3.413,5.12,5.12,11.093,5.12,17.92
		c0,18.773-12.8,34.987-29.867,40.96c0.853,0,2.56,0.853,3.413,0.853C358.253,285.72,383,264.387,383,237.933
		C383,231.107,381.293,225.133,377.88,220.013"/>
	<path d="M169.667,442.733H84.333c-14.507,0-25.6-11.093-25.6-25.6v-179.2c0-14.507,11.093-25.6,25.6-25.6h52.907
		c6.827,0,13.653,2.56,17.92,7.68l32.427,32.427c5.12,5.12,7.68,11.093,7.68,17.92v146.773
		C195.267,431.64,184.173,442.733,169.667,442.733z M84.333,229.4c-5.12,0-8.533,3.413-8.533,8.533v179.2
		c0,5.12,3.413,8.533,8.533,8.533h85.333c5.12,0,8.533-3.413,8.533-8.533V270.36c0-2.56-0.853-4.267-2.56-5.973l-32.427-32.427
		c-1.707-1.707-3.413-2.56-5.973-2.56H84.333z"/>
	<path d="M229.4,511H24.6C10.093,511-1,499.907-1,485.4V169.667c0-11.093,6.827-20.48,17.067-23.893v-27.307
		c0-14.507,11.093-25.6,25.6-25.6h17.067c14.507,0,25.6,11.093,25.6,25.6v25.6h70.827c11.093,0,22.187,4.267,29.867,12.8
		L242.2,214.04c7.68,7.68,12.8,18.773,12.8,29.867V485.4C255,499.907,243.907,511,229.4,511z M41.667,109.933
		c-5.12,0-8.533,3.413-8.533,8.533V152.6c0,5.12-3.413,8.533-8.533,8.533s-8.533,3.413-8.533,8.533V485.4
		c0,5.12,3.413,8.533,8.533,8.533h204.8c5.12,0,8.533-3.413,8.533-8.533V243.907c0-6.827-2.56-13.653-7.68-17.92l0,0l-57.173-57.173
		c-5.12-5.12-11.093-7.68-17.92-7.68H75.8c-5.12,0-8.533-3.413-8.533-8.533v-34.133c0-5.12-3.413-8.533-8.533-8.533L41.667,109.933
		L41.667,109.933z"/>
	<path d="M340.333,289.133c-3.413,0-6.827,0-11.093-0.853c-24.747-5.12-41.813-28.16-40.107-53.76
		c0.853-8.533,3.413-16.213,8.533-23.04c9.387-11.947,16.213-25.6,22.187-38.4l11.947-24.747c1.707-2.56,4.267-5.12,7.68-5.12l0,0
		c3.413,0,5.973,1.707,7.68,5.12l15.36,30.72l0,0c5.12,10.24,11.093,19.627,17.067,29.013l4.267,6.827
		c4.267,6.827,6.827,14.507,6.827,22.187c0,15.36-6.827,29.867-18.773,40.107C363.373,284.867,352.28,289.133,340.333,289.133z
		 M340.333,171.373l-4.267,9.387c-6.827,13.653-14.507,28.16-23.893,41.813c-3.413,4.267-5.12,8.533-5.12,13.653
		c-0.853,17.067,10.24,32.427,26.453,35.84c10.24,2.56,20.48,0,29.013-6.827c7.68-6.827,12.8-16.213,12.8-26.453
		c0-5.12-0.853-9.387-4.267-13.653l-5.12-7.68c-5.973-10.24-12.8-19.627-17.92-30.72L340.333,171.373z"/>
	<path d="M135.533,297.667h-25.6c-5.12,0-8.533-3.413-8.533-8.533c0-5.12,3.413-8.533,8.533-8.533h25.6
		c5.12,0,8.533,3.413,8.533,8.533C144.067,294.253,140.653,297.667,135.533,297.667z"/>
	<path d="M135.533,340.333h-25.6c-5.12,0-8.533-3.413-8.533-8.533s3.413-8.533,8.533-8.533h25.6c5.12,0,8.533,3.413,8.533,8.533
		S140.653,340.333,135.533,340.333z"/>
	<path d="M135.533,383h-25.6c-5.12,0-8.533-3.413-8.533-8.533c0-5.12,3.413-8.533,8.533-8.533h25.6c5.12,0,8.533,3.413,8.533,8.533
		C144.067,379.587,140.653,383,135.533,383z"/>
	<path d="M468.333,511H229.4c-5.12,0-8.533-3.413-8.533-8.533c0-5.12,3.413-8.533,8.533-8.533c5.12,0,8.533-3.413,8.533-8.533
		V243.907c0-6.827-2.56-13.653-7.68-17.92l-57.173-57.173l-0.853-0.853c-1.707-1.707-2.56-4.267-2.56-6.827V92.867
		c0-23.893,18.773-42.667,42.667-42.667V24.6c0-14.507,11.093-25.6,25.6-25.6h34.133c14.507,0,25.6,11.093,25.6,25.6v25.6h104.96
		c11.093,0,22.187,4.267,29.867,12.8l65.707,65.707c7.68,7.68,12.8,18.773,12.8,29.867v309.76C511,492.227,492.227,511,468.333,511z
		 M253.293,493.933h215.04c14.507,0,25.6-11.093,25.6-25.6v-309.76c0-6.827-2.56-13.653-7.68-17.92l0,0l-65.707-65.707
		c-4.267-5.12-11.093-7.68-17.92-7.68H289.133c-5.12,0-8.533-3.413-8.533-8.533V24.6c0-5.12-3.413-8.533-8.533-8.533h-34.133
		c-5.12,0-8.533,3.413-8.533,8.533v34.133c0,5.12-3.413,8.533-8.533,8.533h-8.533c-14.507,0-25.6,11.093-25.6,25.6v64.853
		l55.467,55.467c7.68,7.68,12.8,18.773,12.8,29.867V485.4C255,488.813,254.147,491.373,253.293,493.933z"/>
	<path d="M434.2,459.8H263.533c-14.507,0-25.6-11.093-25.6-25.6V236.227c0-2.56-0.853-4.267-2.56-5.973l-6.827-6.827
		c-5.12-5.12-7.68-11.093-7.68-17.92V127c0-14.507,11.093-25.6,25.6-25.6h135.68c11.093,0,22.187,4.267,29.867,12.8L447,149.187
		c7.68,7.68,12.8,18.773,12.8,29.867V434.2C459.8,448.707,448.707,459.8,434.2,459.8z M246.467,118.467
		c-5.12,0-8.533,3.413-8.533,8.533v78.507c0,2.56,0.853,4.267,2.56,5.973l6.827,6.827c5.12,5.12,7.68,11.093,7.68,17.92V434.2
		c0,5.12,3.413,8.533,8.533,8.533H434.2c5.12,0,8.533-3.413,8.533-8.533V179.053c0-6.827-2.56-13.653-7.68-17.92l-34.987-34.987
		c-5.12-5.12-11.093-7.68-17.92-7.68H246.467z"/>
	<path d="M383,340.333h-85.333c-5.12,0-8.533-3.413-8.533-8.533s3.413-8.533,8.533-8.533H383c5.12,0,8.533,3.413,8.533,8.533
		S388.12,340.333,383,340.333z"/>
	<path d="M400.067,383H280.6c-5.12,0-8.533-3.413-8.533-8.533c0-5.12,3.413-8.533,8.533-8.533h119.467
		c5.12,0,8.533,3.413,8.533,8.533C408.6,379.587,405.187,383,400.067,383z"/>
</g>
<g>
</g>
<g>
</g>
<g>
</g>
<g>
</g>
<g>
</g>
<g>
</g>
<g>
</g>
<g>
</g>
<g>
</g>
<g>
</g>
<g>
</g>
<g>
</g>
<g>
</g>
<g>
</g>
<g>
</g>
</svg>
