<?xml version="1.0" encoding="iso-8859-1"?>
<!-- Generator: Adobe Illustrator 19.0.0, SVG Export Plug-In . SVG Version: 6.00 Build 0)  -->
<svg version="1.1" id="Layer_1" xmlns="http://www.w3.org/2000/svg" xmlns:xlink="http://www.w3.org/1999/xlink" x="0px" y="0px"
	 viewBox="0 0 512.002 512.002" style="enable-background:new 0 0 512.002 512.002;" xml:space="preserve">
<g>
	<path style="fill:#69A646;" d="M287.145,238.971c0,17.206-13.948,31.15-31.15,31.15l0,0c-17.198,0-31.146-13.944-31.146-31.15
		V54.98c0-17.206,13.948-31.146,31.146-31.146l0,0c17.206,0,31.15,13.944,31.15,31.146V238.971z"/>
	<path style="fill:#69A646;" d="M346.78,457.672c0,59.061-40.649,54.234-90.786,54.234l0,0c-50.132,0-90.773,4.827-90.773-54.234
		V242.543c0-59.057,40.645-106.933,90.773-106.933l0,0c50.14,0,90.786,47.876,90.786,106.933V457.672z"/>
</g>
<g>
	<path style="fill:#5E943E;" d="M304.404,152.096c14.245,18.885,22.905,43.733,22.905,70.98v215.133
		c0,59.057-40.641,54.234-90.773,54.234c-26.225,0-49.827,1.299-66.406-5.89c12.233,28.36,46.043,25.353,85.865,25.353
		c50.14,0,90.786,4.827,90.786-54.234V242.543C346.78,204.452,329.859,171.037,304.404,152.096z"/>
	<path style="fill:#5E943E;" d="M299.911,25.113c0,13.874-11.247,25.117-25.117,25.117h-37.59c-13.87,0-25.117-11.243-25.117-25.117
		l0,0C212.087,11.243,223.334,0,237.204,0h37.59C288.664,0,299.911,11.243,299.911,25.113L299.911,25.113z"/>
</g>
<rect x="165.457" y="270.113" style="fill:#EBEACC;" width="181.323" height="119.65"/>
<rect x="327.305" y="270.113" style="fill:#D9D9D9;" width="19.471" height="119.65"/>
<circle style="fill:#F05B56;" cx="256.117" cy="329.944" r="43.794"/>
<g>
</g>
<g>
</g>
<g>
</g>
<g>
</g>
<g>
</g>
<g>
</g>
<g>
</g>
<g>
</g>
<g>
</g>
<g>
</g>
<g>
</g>
<g>
</g>
<g>
</g>
<g>
</g>
<g>
</g>
</svg>
