<?xml version="1.0" encoding="iso-8859-1"?>
<!-- Generator: Adobe Illustrator 19.0.0, SVG Export Plug-In . SVG Version: 6.00 Build 0)  -->
<svg version="1.1" id="Layer_1" xmlns="http://www.w3.org/2000/svg" xmlns:xlink="http://www.w3.org/1999/xlink" x="0px" y="0px"
	 viewBox="0 0 512 512" style="enable-background:new 0 0 512 512;" xml:space="preserve">
<rect x="224.617" y="10.199" style="fill:#BDCED4;" width="62.756" height="63.806"/>
<g>
	<path style="fill:#FF2E48;" d="M341.769,201.61c0-30.039-24.352-54.39-54.39-54.39V74.002h-62.758v73.217
		c-30.039,0-54.39,24.352-54.39,54.39v24.057h171.537V201.61H341.769z"/>
	<rect x="170.235" y="381.511" style="fill:#FF2E48;" width="171.54" height="120.289"/>
</g>
<rect x="170.235" y="225.668" style="fill:#BDCED4;" width="171.54" height="155.844"/>
<path d="M160.032,501.801c0,5.633,4.567,10.199,10.199,10.199h171.538c5.632,0,10.199-4.566,10.199-10.199V201.61
	c0-32.146-23.604-58.881-54.39-63.785V74.003V10.199C297.578,4.566,293.011,0,287.379,0h-62.757
	c-5.632,0-10.199,4.566-10.199,10.199v63.804v63.823c-30.787,4.904-54.39,31.639-54.39,63.785L160.032,501.801L160.032,501.801z
	 M180.43,235.867h151.14v135.45H180.43V235.867z M234.82,20.398h42.358v43.406H234.82L234.82,20.398L234.82,20.398z M180.43,201.61
	c0-24.367,19.824-44.191,44.191-44.191c5.632,0,10.199-4.566,10.199-10.199V84.203h42.358v63.018
	c0,5.633,4.567,10.199,10.199,10.199c24.368,0,44.191,19.824,44.191,44.191v13.858H180.43V201.61z M331.57,491.602H180.43v-99.887
	h151.14V491.602z"/>
<path d="M272.735,338.891h-3.137c-5.632,0-10.199,4.566-10.199,10.199s4.567,10.199,10.199,10.199h3.137
	c5.632,0,10.199-4.566,10.199-10.199S278.368,338.891,272.735,338.891z"/>
<path d="M239.265,338.891h-35.563c-5.632,0-10.199,4.566-10.199,10.199s4.567,10.199,10.199,10.199h35.563
	c5.632,0,10.199-4.566,10.199-10.199S244.897,338.891,239.265,338.891z"/>
<g>
</g>
<g>
</g>
<g>
</g>
<g>
</g>
<g>
</g>
<g>
</g>
<g>
</g>
<g>
</g>
<g>
</g>
<g>
</g>
<g>
</g>
<g>
</g>
<g>
</g>
<g>
</g>
<g>
</g>
</svg>
