<?xml version="1.0" encoding="iso-8859-1"?>
<!-- Generator: Adobe Illustrator 19.0.0, SVG Export Plug-In . SVG Version: 6.00 Build 0)  -->
<svg version="1.1" id="Layer_1" xmlns="http://www.w3.org/2000/svg" xmlns:xlink="http://www.w3.org/1999/xlink" x="0px" y="0px"
	 viewBox="0 0 511.992 511.992" style="enable-background:new 0 0 511.992 511.992;" xml:space="preserve">
<path style="fill:#5D9CEC;" d="M460.207,386.351l-1.812-0.531c-26.467-7.109-35.42-13.938-47.201-18.406
	c-41.811-15.937-52.686-27.405-55.467-32.826c-0.094-0.203-0.172-0.406-0.266-0.609l-0.344-48.546l-99.122-1.126l-99.122,1.125
	l-0.344,48.546c-0.094,0.203-0.172,0.406-0.281,0.609c-2.781,5.421-13.656,16.89-55.451,32.826
	c-11.781,4.469-20.734,11.297-47.202,18.406l-1.812,0.531c-24.093,7.969-40.311,30.312-40.311,55.529v70.107h244.523H500.52v-70.107
	C500.519,416.663,484.301,394.32,460.207,386.351z"/>
<polygon style="fill:#8CC153;" points="305.212,511.988 208.246,511.988 221.902,415.991 289.775,415.991 "/>
<polygon style="fill:#A0D468;" points="289.932,415.991 222.058,415.991 202.668,309.322 309.321,309.322 "/>
<g>
	<polygon style="fill:#F5F7FA;" points="202.137,394.758 252.464,354.649 156.685,291.542 156.247,334.588 	"/>
	<polygon style="fill:#F5F7FA;" points="309.743,394.758 259.416,354.649 355.195,291.542 355.633,334.588 	"/>
</g>
<path style="fill:#EAC6BB;" d="M393.537,191.482c0,89.372-85.2,171.619-137.542,171.619s-137.543-82.247-137.543-171.619
	c0-89.373,61.577-148.34,137.543-148.34S393.537,102.11,393.537,191.482z"/>
<path style="fill:#434A54;" d="M341.086,28.409c-23.39-21.187-104.653-51.624-180.026,0
	c-59.436,40.702-53.436,143.371-53.436,143.371s77.998,19.703,167.323-31.327c57.748-32.999,77.873,0.562,88.232,29.765
	c10.062,28.452,30.357,21.265,30.357,21.265S415.943,96.172,341.086,28.409z"/>
<path style="fill:#656D78;" d="M316.884,126.812c8.108,0,14.89,2.093,20.593,5.578c11.125-44.28,36.155-51.577,42.077-52.686
	c-3.047-6.375-6.625-12.765-10.78-19.093C354.273,65.548,328.586,80.704,316.884,126.812z"/>
<rect x="320.805" y="447.994" style="fill:#F5F7FA;" width="106.65" height="63.998"/>
<path style="fill:#434A54;" d="M384.804,437.318h-21.343c-5.891,0-10.656,4.781-10.656,10.672s4.766,10.656,10.656,10.656h21.343
	c5.874,0,10.655-4.766,10.655-10.656S390.678,437.318,384.804,437.318z"/>
<g>
</g>
<g>
</g>
<g>
</g>
<g>
</g>
<g>
</g>
<g>
</g>
<g>
</g>
<g>
</g>
<g>
</g>
<g>
</g>
<g>
</g>
<g>
</g>
<g>
</g>
<g>
</g>
<g>
</g>
</svg>
